<?xml version="1.0" encoding="utf-8"?>
<!-- Generator: Adobe Illustrator 19.2.0, SVG Export Plug-In . SVG Version: 6.00 Build 0)  -->
<svg version="1.1" id="Layer_1" xmlns="http://www.w3.org/2000/svg" xmlns:xlink="http://www.w3.org/1999/xlink" x="0px" y="0px"
	 viewBox="0 0 30 30" enable-background="new 0 0 30 30" xml:space="preserve">
<g>
	<path fill="#F9D071" d="M6.8,6.8c2.3-2.3,5-3.4,8.2-3.4c3.2,0,6,1.1,8.2,3.4c2.3,2.3,3.4,5,3.4,8.2c0,3.2-1.1,6-3.4,8.2
		c-2.3,2.3-5,3.4-8.2,3.4c-3.2,0-6-1.1-8.2-3.4c-2.3-2.3-3.4-5-3.4-8.2C3.4,11.8,4.5,9,6.8,6.8z M8.4,21.6c1.8,1.8,4,2.8,6.6,2.8
		c2.6,0,4.7-0.9,6.6-2.8c1.8-1.8,2.8-4,2.8-6.6c0-2.6-0.9-4.7-2.8-6.6c-1.8-1.8-4-2.8-6.6-2.8c-2.6,0-4.7,0.9-6.6,2.8
		c-1.8,1.8-2.8,4-2.8,6.6C5.6,17.6,6.6,19.7,8.4,21.6z M13.9,9.1h2.3v7h-2.3V9.1z M13.9,18.5h2.3v2.4h-2.3V18.5z"/>
</g>
</svg>
