<?xml version="1.0" encoding="utf-8"?>
<!-- Generator: Adobe Illustrator 19.0.1, SVG Export Plug-In . SVG Version: 6.00 Build 0)  -->
<svg version="1.1" id="Layer_1" xmlns="http://www.w3.org/2000/svg" xmlns:xlink="http://www.w3.org/1999/xlink" x="0px" y="0px"
	 viewBox="0 0 51.964 51.964" enable-background="new 0 0 51.964 51.964" xml:space="preserve">
<path fill="#F5911E" d="M9.488,0C4.232,0,0,4.231,0,9.488v32.986c0,5.257,4.232,9.489,9.488,9.489h17.879V31.648h-5.371v-7.315
	h5.371v-6.247c0-4.909,3.175-9.419,10.486-9.419c2.96,0,5.149,0.285,5.149,0.285l-0.172,6.83c0,0-2.232-0.021-4.668-0.021
	c-2.637,0-3.06,1.215-3.06,3.233v5.339h7.939l-0.346,7.315h-7.592v20.315h7.374c5.257,0,9.489-4.232,9.489-9.489V9.488
	C51.964,4.231,47.732,0,42.475,0H9.488L9.488,0z"/>
</svg>
