<?xml version="1.0" encoding="utf-8"?>
<!-- Generator: Adobe Illustrator 19.0.1, SVG Export Plug-In . SVG Version: 6.00 Build 0)  -->
<svg version="1.1" id="Layer_1" xmlns="http://www.w3.org/2000/svg" xmlns:xlink="http://www.w3.org/1999/xlink" x="0px" y="0px"
	 viewBox="0 0 500 499.992" enable-background="new 0 0 500 499.992" xml:space="preserve">
<g>
	<g>
		<path fill="#F58F1E" d="M410.291,199.627c-18.408,0-38.996,11.539-55.779,26.309l-80.453-80.459
			c14.766-16.785,26.309-37.37,26.309-55.778c0-30.343-18.027-53.242-50.222-53.634c-0.01,0-0.014,0-0.014,0s-0.01,0-0.014,0
			c-32.194,0.392-50.22,23.291-50.22,53.634c0,18.408,11.54,38.993,26.305,55.778l-80.717,80.459
			c-16.784-14.77-37.377-26.309-55.786-26.309c-30.342,0-53.242,18.029-53.634,50.225c0,0.004,0,0.008,0,0.008
			c0,0.008,0,0.014,0,0.02c0.392,32.193,23.292,50.217,53.634,50.217c18.409,0,39.002-11.539,55.786-26.303l80.717,80.719
			c-14.765,16.783-26.305,37.369-26.305,55.777c0,30.344,18.025,53.246,50.22,53.639c0.004,0,0.008,0,0.008,0s0.01,0,0.019,0
			c32.194-0.392,50.222-23.295,50.222-53.639c0-18.408-11.543-38.994-26.309-55.777l80.453-80.719
			c16.783,14.764,37.371,26.303,55.779,26.303c30.346,0,53.246-18.023,53.643-50.217c0-0.006,0-0.012,0-0.02c0,0,0-0.004,0-0.008
			C463.537,217.656,440.637,199.627,410.291,199.627z M89.315,269.812c-14.519,0-25.879-6.506-26.108-19.953
			c0.229-13.439,11.59-19.949,26.108-19.949c13.578,0,27.054,11.158,35.729,20.09C116.369,258.936,102.894,269.812,89.315,269.812z
			 M250.132,63.201c13.439,0.233,19.952,11.596,19.952,26.109c0,13.579-11.16,27.05-20.089,35.729
			c-8.936-8.679-19.812-22.149-19.812-35.729C230.183,74.797,236.688,63.435,250.132,63.201z M250.132,436.789
			c-13.444-0.236-19.949-11.598-19.949-26.109c0-13.576,10.877-27.049,19.812-35.728c8.929,8.68,20.089,22.152,20.089,35.728
			C270.084,425.191,263.57,436.553,250.132,436.789z M249.964,325.574l-75.55-75.539l75.55-75.623l75.616,75.623L249.964,325.574z
			 M410.68,269.812c-13.576,0-27.053-10.877-35.728-19.813c8.676-8.932,22.152-20.09,35.728-20.09
			c14.514,0,25.879,6.51,26.109,19.949C436.559,263.307,425.193,269.812,410.68,269.812z"/>
		<g>
			<path fill="#C26728" d="M374.951,250l-20.44-24.064c0,0,12.135-10.104,19.715-14.539c0,0-0.574,7.268,6.074,15.412
				c5.881,7.207,12.629,8.611,12.629,8.611s-5.969,3.926-10.705,7.641C378.248,246.182,374.951,250,374.951,250z"/>
			<path fill="#C26728" d="M250.001,375.008l24.061-20.441c0,0,9.93,11.578,14.539,19.717c0,0-7.268-0.574-15.41,6.076
				c-7.207,5.879-8.611,12.625-8.611,12.625s-3.686-5.635-7.398-10.375C254.059,378.631,250.001,375.008,250.001,375.008z"/>
			<path fill="#C26728" d="M125.045,250l20.441,23.793c0,0-10.649,9.246-19.815,14.596c0,0,0.84-7.059-5.809-15.209
				c-5.885-7.203-13.002-8.643-13.002-8.643s6.58-3.764,11.391-8.129C121.991,253.006,125.045,250,125.045,250z"/>
			<path fill="#C26728" d="M249.995,125.039l-23.792,20.438c0,0-10.298-12.004-14.975-20.452c0,0,7.438,1.188,15.578-5.465
				c7.205-5.88,8.615-12.628,8.615-12.628s3.745,6.272,7.934,11.038C246.694,121.77,249.995,125.039,249.995,125.039z"/>
		</g>
	</g>
	<g>
		<path fill="#F58F1E" d="M258.598,86.884c0,4.747-3.854,8.598-8.597,8.598c-4.75,0-8.598-3.851-8.598-8.598
			s3.848-8.594,8.598-8.594C254.744,78.29,258.598,82.137,258.598,86.884z"/>
		<circle fill="#F58F1E" cx="411.973" cy="249.992" r="8.598"/>
		<path fill="#F58F1E" d="M95.275,249.992c0,4.75-3.849,8.598-8.593,8.598c-4.748,0-8.601-3.848-8.601-8.598
			c0-4.746,3.853-8.596,8.601-8.596C91.427,241.396,95.275,245.246,95.275,249.992z"/>
		<circle fill="#F58F1E" cx="249.995" cy="249.992" r="8.597"/>
		<path fill="#F58F1E" d="M258.592,413.103c0,4.744-3.852,8.594-8.597,8.594c-4.748,0-8.597-3.85-8.597-8.594
			c0-4.75,3.849-8.6,8.597-8.6C254.74,404.504,258.592,408.353,258.592,413.103z"/>
		<path fill="#F58F1E" d="M420.574,86.884c0,4.747-3.853,8.598-8.602,8.598c-4.744,0-8.592-3.851-8.592-8.598
			s3.848-8.594,8.592-8.594C416.721,78.29,420.574,82.137,420.574,86.884z"/>
		<path fill="#F58F1E" d="M420.57,413.103c0,4.744-3.851,8.594-8.601,8.594c-4.746,0-8.598-3.85-8.598-8.594
			c0-4.75,3.852-8.6,8.598-8.6C416.719,404.504,420.57,408.353,420.57,413.103z"/>
		<path fill="#F58F1E" d="M95.284,86.884c0,4.747-3.852,8.598-8.596,8.598c-4.751,0-8.6-3.851-8.6-8.598s3.849-8.594,8.6-8.594
			C91.433,78.29,95.284,82.137,95.284,86.884z"/>
		<path fill="#F58F1E" d="M95.275,413.103c0,4.744-3.849,8.594-8.593,8.594c-4.748,0-8.601-3.85-8.601-8.594
			c0-4.75,3.853-8.6,8.601-8.6C91.427,404.504,95.275,408.353,95.275,413.103z"/>
	</g>
</g>
</svg>
