<svg xmlns="http://www.w3.org/2000/svg" viewBox="0 0 466.019 444.116"><title>kolam</title><path d="M728.523,451.176l-142.1,133.18s-28.665,32.774-49.7,33.453c-29.63.957-36.8-22.939-36.8-33.453s9.713-39.047,40.146-35.843c18.159,1.911,52.092,41.578,52.092,41.578L729.8,714.824s28.675,22.464,33.452,43.014c5.569,23.937-15.769,39.667-33.929,39.189-16.242-.427-38.713-8.6-35.845-38.712,1.96-20.6,56.871-65.474,56.871-65.474L859.31,590.568s44.925-43.49,65.953-40.145c25.766,4.1,28.675,24.373,28.675,34.888s-7.851,36.112-38.711,31.543c-25.809-3.824-197.858-175.873-197.858-175.873s-24.85-20.55-22.939-43.012c2.2-25.786,22.939-33.909,35.367-32.977,19.116,1.435,34.41,17.684,33.452,36.8S728.523,451.176,728.523,451.176Z" transform="translate(-493.919 -358.921)" style="fill:none;stroke:#231f20;stroke-miterlimit:10;stroke-width:12px"/><path d="M812.954,548.989c6.637-6.516,17.744-19.146,25.328-27.241,8.17-8.721,28.2-32.976,7.168-52.569-15.293-13.383-37.756-4.779-48.268,4.778-10.093,9.175-67.387,64.519-67.387,64.519s-31.064,26.764-31.064,43.968,15.141,31.863,31.068,46.519S795.747,689.5,795.747,689.5s30.108,31.063,53.209,8.284c12.107-12.742,15.61-32.181-5.417-52.253-14.673-14-33.531-28.738-43.49-43.49C792.412,590.726,787.622,573.841,812.954,548.989Z" transform="translate(-493.919 -358.921)" style="fill:none;stroke:#231f20;stroke-miterlimit:10;stroke-width:12px"/><path d="M648.878,619.427c-6.638,6.515-17.742,19.146-25.328,27.24-8.171,8.722-28.2,32.977-7.169,52.57,15.292,13.382,37.755,4.779,48.269-4.778,10.1-9.175,67.385-64.519,67.385-64.519S763.1,603.177,763.1,585.972s-15.138-31.862-31.066-46.518-65.951-60.535-65.951-60.535-30.109-31.064-53.205-8.285c-12.112,12.743-15.615,32.181,5.412,52.254,14.676,14,33.539,28.738,43.492,43.49C669.423,577.69,674.207,594.575,648.878,619.427Z" transform="translate(-493.919 -358.921)" style="fill:none;stroke:#231f20;stroke-miterlimit:10;stroke-width:12px"/></svg>