<svg xmlns="http://www.w3.org/2000/svg" viewBox="0 0 30 30"><title>notif_grant</title><path d="M25.035,13.36a2.311,2.311,0,0,0,0,3.281,2.164,2.164,0,0,0,1.613.711V22a2.3,2.3,0,0,1-.684,1.641,2.167,2.167,0,0,1-1.613.711H5.648a2.164,2.164,0,0,1-1.613-.711A2.3,2.3,0,0,1,3.352,22V17.352a2.179,2.179,0,0,0,1.641-.684,2.377,2.377,0,0,0-.027-3.309,2.168,2.168,0,0,0-1.613-.711V8A2.3,2.3,0,0,1,4.035,6.36a2.165,2.165,0,0,1,1.613-.711h18.7a2.168,2.168,0,0,1,1.613.711A2.3,2.3,0,0,1,26.648,8v4.648A2.165,2.165,0,0,0,25.035,13.36Zm-5.879,7.219L17.9,15.82l3.828-3.172L16.8,12.375,15,7.781l-1.8,4.594-4.977.273L12.1,15.82l-1.258,4.758L15,17.9Z" style="fill:#00bad3"/></svg>