<svg xmlns="http://www.w3.org/2000/svg" viewBox="0 0 30 30"><title>notif_sv</title><path d="M12.539,23.586,4.391,22l.438-2.352L10.57,20.8l1.859-9.461-2.133.82v3.992H8V10.68l6.07-2.57a2.786,2.786,0,0,0,.465-.055A2.828,2.828,0,0,1,15,8a2.381,2.381,0,0,1,1.969,1.148l1.148,1.859A5.367,5.367,0,0,0,23.148,13.8v2.352a8.1,8.1,0,0,1-6.4-2.9l-.711,3.5,2.461,2.3V27.8H16.148v-7l-2.461-2.3Zm5.824-16.9A2.167,2.167,0,0,1,16.75,7.4a2.252,2.252,0,0,1-1.641-.711A2.25,2.25,0,0,1,14.4,5.047a2.164,2.164,0,0,1,.711-1.613A2.3,2.3,0,0,1,16.75,2.75a2.209,2.209,0,0,1,1.613.684,2.21,2.21,0,0,1,.684,1.613A2.3,2.3,0,0,1,18.363,6.688Z" style="fill:#00bad3"/></svg>