<svg xmlns="http://www.w3.org/2000/svg" viewBox="0 0 30 30"><title>notif_bell</title><path d="M8.656,5.156a9.428,9.428,0,0,0-4.1,7.492H2.2A11.769,11.769,0,0,1,7.016,3.516ZM22,13.25v6.4L24.352,22v1.148H4.5V22l2.352-2.352v-6.4a7.391,7.391,0,0,1,1.641-4.7,7.344,7.344,0,0,1,4.156-2.68V5.1a1.682,1.682,0,0,1,.52-1.23,1.717,1.717,0,0,1,2.461,0,1.685,1.685,0,0,1,.52,1.23v.766a7.474,7.474,0,0,1,4.184,2.68A7.319,7.319,0,0,1,22,13.25Zm-5.25,11.1a2.16,2.16,0,0,1-.684,1.668,2.374,2.374,0,0,1-1.668.629,2.335,2.335,0,0,1-2.3-2.3Zm7.547-11.7a9.391,9.391,0,0,0-4.156-7.492l1.7-1.641a11.775,11.775,0,0,1,4.813,9.133Z" style="fill:#00bad3"/></svg>