<?xml version="1.0" encoding="utf-8"?>
<!-- Generator: Adobe Illustrator 19.2.0, SVG Export Plug-In . SVG Version: 6.00 Build 0)  -->
<svg version="1.1" id="Layer_1" xmlns="http://www.w3.org/2000/svg" xmlns:xlink="http://www.w3.org/1999/xlink" x="0px" y="0px"
	 viewBox="0 0 80 80" enable-background="new 0 0 80 80" xml:space="preserve">
<g opacity="0.5">
	<path fill="#FFFFFF" d="M31.8,25c2.3-2.3,5-3.4,8.2-3.4c3.2,0,6,1.1,8.2,3.4s3.4,5,3.4,8.2c0,1.6-0.4,3.5-1.2,5.5
		c-0.8,2.1-1.8,4-2.9,5.9c-1.1,1.8-2.3,3.5-3.4,5.1c-1.1,1.6-2.1,2.9-2.9,3.8L40,54.9c-0.3-0.4-0.7-0.8-1.2-1.4
		c-0.5-0.6-1.5-1.8-2.8-3.6c-1.4-1.8-2.5-3.5-3.6-5.2c-1-1.7-1.9-3.6-2.8-5.7c-0.8-2.1-1.2-4-1.2-5.6C28.4,30,29.5,27.3,31.8,25z
		 M37.1,36.2c0.8,0.8,1.8,1.2,2.9,1.2c1.1,0,2.1-0.4,2.9-1.2c0.8-0.8,1.2-1.8,1.2-2.9c0-1.1-0.4-2.1-1.2-2.9
		c-0.8-0.8-1.8-1.2-2.9-1.2c-1.1,0-2.1,0.4-2.9,1.2c-0.8,0.8-1.2,1.8-1.2,2.9C35.9,34.4,36.3,35.4,37.1,36.2z"/>
</g>
</svg>
