<?xml version="1.0" encoding="utf-8"?>
<!-- Generator: Adobe Illustrator 19.2.0, SVG Export Plug-In . SVG Version: 6.00 Build 0)  -->
<svg version="1.1" id="Layer_1" xmlns="http://www.w3.org/2000/svg" xmlns:xlink="http://www.w3.org/1999/xlink" x="0px" y="0px"
	 viewBox="0 0 80 80" enable-background="new 0 0 80 80" xml:space="preserve">
<g opacity="0.5">
	<path fill="#FFFFFF" d="M46.6,20.7H50v3.4h1.6c0.9,0,1.7,0.3,2.3,1c0.7,0.7,1,1.5,1,2.3v23.3c0,0.9-0.3,1.7-1,2.3
		c-0.7,0.7-1.5,1-2.3,1H28.4c-0.9,0-1.7-0.3-2.4-1c-0.7-0.7-1-1.5-1-2.3V27.5c0-0.9,0.3-1.7,1-2.3c0.7-0.7,1.4-1,2.4-1H30v-3.4h3.4
		v3.4h13.3V20.7z M51.6,50.7V32.5H28.4v18.3H51.6z M48.4,39.1v8.4H40v-8.4H48.4z"/>
</g>
</svg>
