<?xml version="1.0" encoding="utf-8"?>
<!-- Generator: Adobe Illustrator 19.2.0, SVG Export Plug-In . SVG Version: 6.00 Build 0)  -->
<svg version="1.1" id="Layer_1" xmlns="http://www.w3.org/2000/svg" xmlns:xlink="http://www.w3.org/1999/xlink" x="0px" y="0px"
	 viewBox="0 0 30 30" enable-background="new 0 0 30 30" xml:space="preserve">
<g>
	<path fill="#52B16D" d="M6.8,6.8c2.3-2.3,5-3.4,8.2-3.4c3.2,0,6,1.1,8.2,3.4c2.3,2.3,3.4,5,3.4,8.2c0,3.2-1.1,6-3.4,8.2
		c-2.3,2.3-5,3.4-8.2,3.4c-3.2,0-6-1.1-8.2-3.4c-2.3-2.3-3.4-5-3.4-8.2C3.4,11.8,4.5,9,6.8,6.8z M12.6,20.9l10.5-10.5l-1.6-1.7
		l-8.9,8.9l-4.2-4.2L6.9,15L12.6,20.9z"/>
</g>
</svg>
