<svg xmlns="http://www.w3.org/2000/svg" viewBox="0 0 266.89 266.89"><title>twitter_logo</title><rect width="266.89" height="266.89" style="fill:none"/><path d="M265.226,54.7a108.093,108.093,0,0,1-31.057,8.514A54.23,54.23,0,0,0,257.944,33.3a108.262,108.262,0,0,1-34.337,13.122A54.124,54.124,0,0,0,131.465,95.74a153.511,153.511,0,0,1-111.452-56.5,54.132,54.132,0,0,0,16.734,72.192,53.853,53.853,0,0,1-24.492-6.763c0,0.226,0,.452,0,0.68a54.105,54.105,0,0,0,43.376,53.021,54.209,54.209,0,0,1-24.419.926,54.129,54.129,0,0,0,50.512,37.553A108.5,108.5,0,0,1,14.563,220a110.07,110.07,0,0,1-12.9-.755,153.052,153.052,0,0,0,82.889,24.293c99.46,0,153.848-82.394,153.848-153.849q0-3.516-.156-7A109.894,109.894,0,0,0,265.226,54.7Z"/></svg>