<?xml version="1.0" encoding="utf-8"?>
<!-- Generator: Adobe Illustrator 19.0.1, SVG Export Plug-In . SVG Version: 6.00 Build 0)  -->
<svg version="1.1" id="Layer_1" xmlns="http://www.w3.org/2000/svg" xmlns:xlink="http://www.w3.org/1999/xlink" x="0px" y="0px"
	 viewBox="0 0 54.398 54.396" enable-background="new 0 0 54.398 54.396" xml:space="preserve">
<path fill="#F5911E" d="M45.332,17.069c-1.321,0.59-2.751,0.992-4.286,1.205c1.606-0.945,2.704-2.326,3.295-4.145
	c-1.536,0.898-3.118,1.499-4.747,1.808c-1.44-1.559-3.245-2.338-5.418-2.338c-2.055,0-3.808,0.726-5.26,2.178
	c-1.452,1.451-2.178,3.204-2.178,5.259c0,0.684,0.059,1.252,0.177,1.699c-3.045-0.164-5.903-0.932-8.569-2.301
	c-2.668-1.369-4.935-3.199-6.8-5.49c-0.685,1.182-1.028,2.433-1.028,3.754c0,2.691,1.074,4.758,3.223,6.198
	c-1.109-0.023-2.291-0.331-3.542-0.921v0.07c0,1.772,0.59,3.348,1.771,4.729c1.181,1.381,2.632,2.237,4.357,2.567
	c-0.685,0.188-1.287,0.284-1.807,0.284c-0.307,0-0.768-0.049-1.381-0.143c0.497,1.488,1.374,2.715,2.638,3.684
	c1.263,0.968,2.698,1.464,4.303,1.487c-2.739,2.124-5.82,3.187-9.243,3.187c-0.613,0-1.204-0.035-1.77-0.105
	c3.494,2.22,7.295,3.328,11.402,3.328c2.646,0,5.124-0.418,7.438-1.257c2.314-0.838,4.298-1.96,5.951-3.364
	c1.652-1.404,3.074-3.021,4.266-4.852c1.194-1.83,2.079-3.742,2.656-5.736c0.58-1.996,0.869-3.985,0.869-5.969
	c0-0.424-0.012-0.743-0.035-0.956C43.102,19.867,44.341,18.581,45.332,17.069L45.332,17.069z M54.398,10.198v33.999
	c0,2.81-0.997,5.212-2.991,7.207c-1.996,1.995-4.398,2.992-7.208,2.992h-34c-2.808,0-5.211-0.997-7.207-2.992
	C0.998,49.409,0,47.007,0,44.197V10.198C0,7.39,0.998,4.987,2.992,2.992C4.988,0.997,7.391,0,10.199,0h34
	c2.81,0,5.212,0.997,7.208,2.992C53.401,4.987,54.398,7.39,54.398,10.198z"/>
</svg>
