<svg xmlns="http://www.w3.org/2000/svg" viewBox="0 0 266.89 266.89"><title>youtube_logo</title><rect width="266.89" height="266.89" style="fill:none"/><path d="M106.215,167.9l71.538-37.065L106.215,93.512V167.9Z" transform="translate(-0.115)" style="fill:#fff"/><path d="M106.215,93.512L168.952,135.4l8.8-4.568Z" transform="translate(-0.115)" style="fill-rule:evenodd;opacity:0.12"/><path d="M263.295,80.625s-2.587-18.245-10.525-26.279C242.7,43.8,231.417,43.749,226.242,43.131c-37.049-2.678-92.624-2.678-92.624-2.678H133.5s-55.574,0-92.624,2.678C35.7,43.749,24.422,43.8,14.351,54.346,6.412,62.38,3.829,80.625,3.829,80.625a400.4,400.4,0,0,0-2.648,42.85v20.086a400.4,400.4,0,0,0,2.648,42.85s2.583,18.245,10.521,26.279c10.071,10.545,23.3,10.212,29.193,11.317,21.181,2.031,90.017,2.66,90.017,2.66s55.633-.084,92.682-2.762c5.175-.617,16.46-0.67,26.528-11.215,7.938-8.034,10.525-26.279,10.525-26.279a400.98,400.98,0,0,0,2.644-42.85V123.475A400.982,400.982,0,0,0,263.295,80.625ZM106.227,167.9l-0.012-74.39,71.539,37.324Z" transform="translate(-0.115)"/></svg>