<svg width="50" height="50" viewBox="0 0 50 50" fill="none" xmlns="http://www.w3.org/2000/svg">
<path d="M20.0577 32.7204C21.0317 33.9576 22.0238 35.5132 22.543 36.4528C23.1752 37.6742 23.4374 38.499 23.9077 39.9763C24.1827 40.7854 24.4448 41.0307 24.9948 41.0307C25.5962 41.0307 25.8712 40.6183 26.082 39.9763C26.5215 38.5904 26.8607 37.5359 27.3979 36.5311C29.4694 32.5638 32.8465 29.745 34.7483 25.8822C34.7483 25.8822 36 23.5227 36 20.2184C36 17.1386 34.7663 14.9984 34.7663 14.9984L20.0654 32.7465L20.0577 32.7204Z" fill="#34A853"/>
<path d="M15.0717 25.4646C16.2565 28.2051 18.5156 30.6063 20.0577 32.7204L28.2306 22.8807C28.2306 22.8807 27.0766 24.4154 24.9923 24.4154C22.6689 24.4154 20.7773 22.5361 20.7773 20.161C20.7773 18.5272 21.736 17.3944 21.736 17.3944C15.7219 18.3027 16.056 19.7826 15.0537 25.4594L15.0717 25.4646Z" fill="#FBBC04"/>
<path d="M28.3334 9.48343C31.0577 10.3734 33.3708 12.25 34.7586 14.9906L28.2306 22.8989C28.2306 22.8989 29.1892 21.7609 29.1892 20.1323C29.1892 17.7076 27.1743 15.878 25 15.878C22.9362 15.878 21.7617 17.3944 21.7617 17.3944C22.2628 16.2355 27.4416 9.87754 28.3411 9.48604L28.3334 9.48343Z" fill="#4285F4"/>
<path d="M16.5624 12.9626C18.1867 10.9999 21.0344 8.96927 24.9666 8.96927C26.8659 8.96927 28.3078 9.48083 28.3078 9.48083L21.754 17.3892C21.312 17.1457 16.9994 13.7352 16.5624 12.9522V12.9626Z" fill="#1A73E8"/>
<path d="M15.0717 25.4646C15.0717 25.4646 14 23.3035 14 20.1924C14 17.243 15.136 14.6591 16.5701 12.9887L21.7617 17.4257L15.0794 25.4646H15.0717Z" fill="#EA4335"/>
</svg>
